<?xml version="1.0" encoding="UTF-8"?>
<svg width="147px" height="216px" viewBox="0 0 147 216" version="1.1" xmlns="http://www.w3.org/2000/svg" xmlns:xlink="http://www.w3.org/1999/xlink">
    <!-- Generator: Sketch 44.1 (41455) - http://www.bohemiancoding.com/sketch -->
    <title>page_1_copy</title>
    <desc>Created with Sketch.</desc>
    <defs>
        <path d="M71.2144238,153.098201 C69.4501539,146.005917 67.0359351,137.390079 64.5556002,131.888291 C64.5556002,131.888291 58.8374369,116.375291 57.6392138,107.674467 C57.6392138,107.674467 54.3228174,105.658208 48.1339312,107.674467 C48.1339312,107.674467 43.3906809,108.96476 41.3700894,109.050968 C41.3700894,109.050968 38.438859,111.113734 38.5365472,114.744702 C38.5365472,114.744702 37.2285579,122.253353 47.2796918,127.17915 C47.2796918,127.17915 48.5700163,127.392403 49.4322368,129.699615 L52.3672449,137.271221 C52.3672449,137.271221 52.8896319,139.020347 50.5975247,140.935651 C50.5975247,140.935651 41.392596,149.36764 30.3230789,149.053433 C30.3230789,149.053433 18.5755974,150.867782 4.4906231,140.935651 C4.4906231,140.935651 0.260022928,137.751606 3.40429445,131.089728 C3.40429445,131.089728 5.93684434,125.888857 16.8612658,121.086134 C16.8612658,121.086134 26.0543825,116.609529 26.0457098,113.124322 C26.0457098,113.124322 26.2667319,111.237376 19.6116454,111.713224 C19.6116454,111.713224 15.3939213,111.665015 10.4303406,113.124322 C10.4303406,113.124322 4.41820828,114.240496 0.712070154,113.124322 C0.712070154,113.124322 -2.08369509,110.528991 3.40429445,110.220455 C3.40429445,110.220455 17.5727506,108.74697 20.8261499,107.674467 C20.8261499,107.674467 26.1039183,106.271877 29.1612495,105.28218 L33.7836132,96.5184017 C33.7836132,96.5184017 35.4265942,91.0135326 41.3700894,83.5207627 C41.3700894,83.5207627 50.3609129,72.1230861 49.4322368,64.1442588 L49.4322368,60.5977982 L47.2796918,57.6326782 C47.2796918,57.6326782 48.4972822,43.9822363 43.8520394,30.600629 L46.0032011,29.2490833 C46.0032011,29.2490833 46.5654401,28.7454439 46.0032011,27.4738679 C46.0032011,27.4738679 43.8031953,24.9142683 45.2858102,24.7662391 C45.2858102,24.7662391 52.1975144,25.3640273 54.0445445,26.6038423 C54.0445445,26.6038423 72.7786569,9.9558434 82.9082868,0.227431742 L102.091819,0.227431742 L101.874504,0.588713588 C101.874504,0.588713588 68.2513629,44.2113696 66.2997278,59.1606111 C66.2997278,59.1606111 68.0475799,65.2281043 68.560496,69.7154857 C68.560496,69.7154857 68.5700733,96.8087883 70.043909,98.135379 C70.043909,98.135379 73.9966618,99.9667433 78.1670316,96.5184017 C78.1670316,96.5184017 86.1129747,96.4838048 87.6150102,94.0960551 L87.6150102,89.465749 C87.6150102,89.465749 88.8994288,87.5561164 86.7722103,86.7524486 L82.2251345,88.1079645 C82.2251345,88.1079645 81.3573273,93.9423544 76.7283126,94.0960551 L72.4717474,92.9163593 C72.4717474,92.9163593 69.7443532,89.3341676 71.0314321,88.1079645 C71.0314321,88.1079645 74.4856348,83.1713912 76.7283126,83.5207627 C78.9715224,83.8701341 77.2119648,83.0670335 77.2119648,83.0670335 C77.2119648,83.0670335 80.4937766,83.2842563 80.7773702,85.7565131 L89.2234598,83.5207627 C89.2234598,83.5207627 89.8326807,74.922595 94.2919648,73.8699434 C94.2919648,73.8699434 100.315537,72.4860694 99.0774083,77.0948234 L98.3319773,80.8284473 C98.3319773,80.8284473 102.110766,80.7172275 105.784501,81.2227298 L105.7845,90.1588639 C102.250502,92.0371969 97.3079316,94.5743327 95.8003851,94.9019915 C93.3704184,95.4300188 95.8003851,106.677398 95.8003851,106.677398 L96.5287898,111.713224 C96.5287898,111.713224 100.359166,117.435883 100.359166,117.481823 C100.359166,117.527763 100.539538,118.80728 98.3319773,119.571813 L94.2919648,121.086134 C94.2919648,121.086134 90.656326,123.036035 89.2234598,119.571813 C89.2234598,119.571813 89.1452454,116.572096 87.6150102,114.744702 L87.6150102,101.259871 C87.6150102,101.259871 88.456746,99.5487453 86.7722103,99.7773114 L82.2251345,101.259871 L79.4732651,102.345418 L78.1670316,103.288608 L74.9107592,103.288608 L72.4717474,104.360543 C72.4717474,104.360543 69.3750962,104.101917 70.043909,107.674467 C70.043909,107.674467 71.9029638,118.253163 72.4717474,118.253163 C73.0405309,118.253163 77.4162799,120.056736 77.2119648,124.224239 L76.7283126,127.17915 L76.7283126,129.699615 C76.7283126,129.699615 79.3455681,137.089729 80.7773702,144.17868 C80.7773702,144.17868 81.5321219,148.687904 82.6160236,153.098203 L71.2144238,153.098201 L71.2144238,153.098201 Z" id="path-1"></path>
    </defs>
    <g id="web" stroke="none" stroke-width="1" fill="none" fill-rule="evenodd">
        <g id="construccion" transform="translate(-935.000000, -134.000000)">
            <g id="page_1_copy" transform="translate(935.000000, 134.000000)">
                <path d="M87.6150102,202.291631 C87.6150102,202.291631 95.5854286,211.23588 95.8003851,212.471725 C95.8003851,212.471725 90.9755684,217.943585 82.2251345,214.807976 C82.2251345,214.807976 77.4631021,212.558501 74.9107592,205.508854 C74.9107592,205.508854 72.0402381,198.484332 71.0314321,195.037409 C71.0314321,195.037409 67.3085337,194.122464 67.3883443,190.936604 C67.3883443,190.936604 65.1956812,187.985607 62.1447881,185.247635 C62.1447881,185.247635 59.2428747,184.207801 59.282248,180.067125 C59.282248,180.067125 57.1550295,175.350384 62.1447881,176.239523 C62.1447881,176.239523 64.094827,172.648597 67.3883443,174.170631 C67.3883443,174.170631 69.893333,174.576776 71.0314321,176.239523 C71.0314321,176.239523 73.6343217,175.603281 73.9822959,172.272342 C73.9822959,172.272342 69.3947828,149.684683 64.5556002,138.950586 C64.5556002,138.950586 58.8374369,123.437586 57.6392138,114.736762 C57.6392138,114.736762 54.3228174,112.720503 48.1339312,114.736762 C48.1339312,114.736762 43.3906809,116.027054 41.3700894,116.113263 C41.3700894,116.113263 38.438859,118.176029 38.5365472,121.806997 C38.5365472,121.806997 37.2285579,129.315647 47.2796918,134.241444 C47.2796918,134.241444 48.5700163,134.454697 49.4322368,136.76191 L52.3672449,144.333515 C52.3672449,144.333515 52.8896319,146.082641 50.5975247,147.997945 C50.5975247,147.997945 41.392596,156.429935 30.3230789,156.115727 C30.3230789,156.115727 18.5755974,157.930077 4.4906231,147.997945 C4.4906231,147.997945 0.260022928,144.813901 3.40429445,138.152022 C3.40429445,138.152022 5.93684434,132.951152 16.8612658,128.148429 C16.8612658,128.148429 26.0543825,123.671823 26.0457098,120.186616 C26.0457098,120.186616 26.2667319,118.29967 19.6116454,118.775519 C19.6116454,118.775519 15.3939213,118.72731 10.4303406,120.186616 C10.4303406,120.186616 4.41820828,121.30279 0.712070154,120.186616 C0.712070154,120.186616 -2.08369509,117.591285 3.40429445,117.28275 C3.40429445,117.28275 17.5727506,115.809264 20.8261499,114.736762 C20.8261499,114.736762 26.1039183,113.334172 29.1612495,112.344475 L33.7836132,103.580696 C33.7836132,103.580696 35.4265942,98.075827 41.3700894,90.5830571 C41.3700894,90.5830571 50.3609129,79.1853805 49.4322368,71.2065532 L49.4322368,67.6600926 L47.2796918,64.6949726 C47.2796918,64.6949726 48.4972822,51.0445307 43.8520394,37.6629234 L46.0032011,36.3113777 C46.0032011,36.3113777 46.5654401,35.8077383 46.0032011,34.5361623 C46.0032011,34.5361623 43.8031953,31.9765627 45.2858102,31.8285336 C45.2858102,31.8285336 52.1975144,32.4263217 54.0445445,33.6661367 C54.0445445,33.6661367 88.5466659,3.0059557 89.2234598,0.588146426 C89.2234598,0.588146426 93.0937417,1.73267824 95.8003851,0.588146426 C95.8003851,0.588146426 102.895547,-2.56130112 103.039206,5.7147188 L101.874504,7.651008 C101.874504,7.651008 68.2513629,51.273664 66.2997278,66.2229055 C66.2997278,66.2229055 68.0475799,72.2903987 68.560496,76.7777802 C68.560496,76.7777802 68.5700733,103.871083 70.043909,105.197673 C70.043909,105.197673 73.9966618,107.029038 78.1670316,103.580696 C78.1670316,103.580696 86.1129747,103.546099 87.6150102,101.15835 L87.6150102,96.5280434 C87.6150102,96.5280434 88.8994288,94.6184108 86.7722103,93.814743 L82.2251345,95.1702589 C82.2251345,95.1702589 81.3573273,101.004649 76.7283126,101.15835 L72.4717474,99.9786537 C72.4717474,99.9786537 69.7443532,96.396462 71.0314321,95.1702589 C71.0314321,95.1702589 74.4856348,90.2336856 76.7283126,90.5830571 C78.9715224,90.9324285 77.2119648,90.1293279 77.2119648,90.1293279 C77.2119648,90.1293279 80.4937766,90.3465507 80.7773702,92.8188075 L89.2234598,90.5830571 C89.2234598,90.5830571 89.8326807,81.9848895 94.2919648,80.9322378 C94.2919648,80.9322378 100.315537,79.5483639 99.0774083,84.1571178 L98.3319773,87.8907417 C98.3319773,87.8907417 109.450658,87.5634895 112.085472,90.5830571 C112.085472,90.5830571 113.117689,92.0894379 109.579951,95.1702589 C109.579951,95.1702589 98.2298197,101.436259 95.8003851,101.964286 C93.3704184,102.492313 95.8003851,113.739692 95.8003851,113.739692 L96.5287898,118.775519 C96.5287898,118.775519 100.359166,124.498178 100.359166,124.544118 C100.359166,124.590058 100.539538,125.869574 98.3319773,126.634108 L94.2919648,128.148429 C94.2919648,128.148429 90.656326,130.09833 89.2234598,126.634108 C89.2234598,126.634108 89.1452454,123.634391 87.6150102,121.806997 L87.6150102,108.322166 C87.6150102,108.322166 88.456746,106.61104 86.7722103,106.839606 L82.2251345,108.322166 L79.4732651,109.407713 L78.1670316,110.350902 L74.9107592,110.350902 L72.4717474,111.422837 C72.4717474,111.422837 69.3750962,111.164212 70.043909,114.736762 C70.043909,114.736762 71.9029638,125.315457 72.4717474,125.315457 C73.0405309,125.315457 77.4162799,127.119031 77.2119648,131.286533 L76.7283126,134.241444 L76.7283126,136.76191 C76.7283126,136.76191 79.3455681,144.152023 80.7773702,151.240974 C80.7773702,151.240974 83.0924097,165.072057 85.4361809,167.979497 L83.2376649,172.272342 L83.2376649,176.951764 C83.2376649,176.951764 84.1698527,180.97067 82.2251345,183.936074 C82.2251345,183.936074 81.717007,185.083328 83.2376649,186.201033 C83.2376649,186.201033 86.9334277,190.205874 84.6785123,191.994134 C84.6785123,191.994134 81.5829252,193.301611 84.6785123,197.523561 L87.6150102,202.291631 Z" id="Fill-1" fill="#000000"></path>
                <g id="Group-8" transform="translate(0.000000, 7.062294)">
                    <mask id="mask-2" fill="white">
                        <use xlink:href="#path-1"></use>
                    </mask>
                    <g id="Clip-3"></g>
                    <path d="M97.5439806,84.7123689 C97.5439806,84.7123689 95.4790144,89.3664958 96.7389577,90.3329389 C96.7389577,90.3329389 104.33267,87.1874615 105.431928,85.5977079 C105.431928,85.5977079 106.818504,83.3421068 104.092174,83.7453586 C104.092174,83.7453586 100.410777,84.5422204 97.5439806,84.7123689 Z" id="Fill-2" fill="#FFFFFF" mask="url(#mask-2)"></path>
                    <path d="M51.5570609,86.8244781 L54.6048148,99.6383568 C54.6048148,99.6383568 55.3922794,101.714735 53.4784213,102.205897 C53.4784213,102.205897 48.1764968,102.237091 46.2100169,103.333414 C44.2434838,104.429737 46.736554,103.073087 46.736554,103.073087 C46.736554,103.073087 41.5592406,105.830058 41.2710179,101.239454 C41.2710179,101.239454 43.4322357,96.1321647 44.1904896,94.9870658 L48.7013313,86.8244781 C48.7013313,86.8244781 50.3585186,84.1043718 51.5570609,86.8244781 Z" id="Fill-4" fill="#FFFFFF" mask="url(#mask-2)"></path>
                    <path d="M58.4277425,29.4112914 C58.4277425,29.4112914 65.5580213,37.812654 65.3739249,42.8881819 L93.841301,4.24066618 C93.841301,4.24066618 96.5271936,0.474714136 92.6845794,0.227431742 L59.6637426,27.2611824 C59.6637426,27.2611824 57.2481419,28.482281 58.4277425,29.4112914 Z" id="Fill-5" fill="#FFFFFF" mask="url(#mask-2)"></path>
                    <path d="M38.7102682,114.795747 C38.7102682,114.795747 34.8569062,108.089062 31.4306904,113.160053 C31.4306904,113.160053 29.8500681,117.450062 25.8610812,113.160053 L4.8754698,123.897554 L-5.11697667,136.527105 L7.25159092,153.098201 L44.0928014,153.098201 L56.5250578,142.011556 L49.4228724,122.53353 L38.7102682,114.795747" id="Fill-6" fill="#D02D10" mask="url(#mask-2)"></path>
                    <path d="M36.2005974,104.543169 C36.2005974,104.543169 31.4561234,104.853406 33.1308158,108.518971 C33.1308158,108.518971 35.0481324,111.147197 38.2327348,108.518971 C38.2327348,108.518971 40.9928513,104.806332 36.2005974,104.543169 Z" id="Fill-7" fill="#D02D10" mask="url(#mask-2)"></path>
                </g>
                <path d="M6.27742276,66.7503657 L4.96421919,63.5107395 L3.66181664,66.7503657 L6.27742276,66.7503657 Z M4.36728912,61.8103894 L5.60451301,61.8103894 L8.94730009,69.9661711 L7.53640834,69.9661711 L6.76581042,68.0111656 L3.17342899,68.0111656 L2.39203003,69.9661711 L1.02450204,69.9661711 L4.36728912,61.8103894 Z" id="Fill-9" fill="#9B9B9B"></path>
                <path d="M22.0361849,66.0788465 C22.542663,66.0788465 22.9424609,65.9444293 23.2354722,65.6744604 C23.5284835,65.4044915 23.6750158,65.0573887 23.6750158,64.633152 L23.6750158,64.6098984 C23.6750158,64.1317812 23.5267277,63.7710666 23.2300451,63.5283215 C22.9334157,63.2850092 22.5354268,63.1636366 22.0361849,63.1636366 L20.484188,63.1636366 L20.484188,66.0788465 L22.0361849,66.0788465 Z M19.149276,61.8682399 L22.1447273,61.8682399 C22.58608,61.8682399 22.9858778,61.931762 23.3440146,62.0588061 C23.7021514,62.1864175 24.0060701,62.3696106 24.2556645,62.6083856 C24.505312,62.8477277 24.6970171,63.1330099 24.830886,63.4647994 C24.964755,63.7960217 25.0316895,64.1663781 25.0316895,64.5753015 L25.0316895,64.5985551 C25.0316895,65.0534186 24.9520917,65.4527003 24.7928962,65.795833 C24.6337007,66.1389656 24.416669,66.4259493 24.1416949,66.6573512 C23.866774,66.8887531 23.5447649,67.0645731 23.1757739,67.183677 C22.8067829,67.3033481 22.4124653,67.3634672 21.992768,67.3634672 L20.484188,67.3634672 L20.484188,69.9661711 L19.149276,69.9661711 L19.149276,61.8682399 Z" id="Fill-10" fill="#9B9B9B"></path>
                <path d="M38.4135857,70.0937824 C37.9215799,70.0937824 37.4766092,70.01835 37.0786736,69.8680522 C36.680738,69.7177544 36.3406384,69.4920241 36.0584813,69.1914286 C35.776271,68.8902658 35.5592394,68.5182079 35.4072801,68.0746877 C35.2553207,67.6311674 35.179341,67.116752 35.179341,66.530307 L35.179341,61.8682399 L36.5143063,61.8682399 L36.5143063,66.4724566 C36.5143063,67.2284828 36.684356,67.8030173 37.0244024,68.1960602 C37.3644487,68.5896703 37.834746,68.7864753 38.4352941,68.7864753 C39.0286061,68.7864753 39.4952853,68.5970434 39.8353848,68.2193138 C40.1754312,67.8415843 40.345481,67.278393 40.345481,66.530307 L40.345481,61.8682399 L41.680393,61.8682399 L41.680393,66.4611133 C41.680393,67.0623045 41.6026043,67.5908989 41.4470801,68.0457624 C41.2915026,68.5006259 41.0726087,68.8806241 40.7904517,69.1851898 C40.5082414,69.4897555 40.166386,69.7177544 39.7648323,69.8680522 C39.3632254,70.01835 38.9128275,70.0937824 38.4135857,70.0937824 Z" id="Fill-11" fill="#9B9B9B"></path>
                <polygon id="Fill-12" fill="#FFFFFF" points="52.4141736 61.8682399 53.8359728 61.8682399 56.1478197 65.6971469 58.4591347 61.8682399 59.8813595 61.8682399 59.8813595 69.9661711 58.5463942 69.9661711 58.5463942 64.1584378 56.1478197 67.9765687 56.1041899 67.9765687 53.7274303 64.1816915 53.7274303 69.9661711 52.4141736 69.9661711"></polygon>
                <path d="M75.3358837,66.7503657 L74.0227333,63.5107395 L72.7202244,66.7503657 L75.3358837,66.7503657 Z M73.42575,61.8103894 L74.6633464,61.8103894 L78.0058142,69.9661711 L76.5947628,69.9661711 L75.8243245,68.0111656 L72.2317835,68.0111656 L71.4507038,69.9661711 L70.0832822,69.9661711 L73.42575,61.8103894 Z" id="Fill-13" fill="#8C8C8C"></path>
                <polygon id="Fill-14" fill="#8C8C8C" points="88.2077369 61.8682399 89.4453332 61.8682399 93.5151417 67.4672578 93.5151417 61.8682399 94.828292 61.8682399 94.828292 69.9661711 93.7104116 69.9661711 89.5208873 64.2049451 89.5208873 69.9661711 88.2077369 69.9661711"></polygon>
                <path d="M109.328281,68.7978185 C109.581547,68.7978185 109.81619,68.7632217 110.033275,68.6934608 C110.25036,68.6242671 110.449354,68.5278497 110.630258,68.4042085 L109.328281,67.2245126 L110.185447,66.1832042 L111.498598,67.4559145 C111.759312,67.0316778 111.88967,66.5263369 111.88967,65.9404591 L111.88967,65.9172055 C111.88967,65.5235955 111.826353,65.1515375 111.69972,64.8010318 C111.573088,64.4499588 111.395376,64.1453931 111.16765,63.8867675 C110.939923,63.628709 110.666439,63.4222623 110.348261,63.2679944 C110.030083,63.1137264 109.682641,63.0365925 109.306467,63.0365925 C108.930293,63.0365925 108.584447,63.1114578 108.269993,63.2623227 C107.955007,63.4126205 107.685779,63.6167987 107.461246,63.8754243 C107.237244,64.1334827 107.06166,64.4363469 106.935028,64.7834498 C106.808395,65.1305526 106.745078,65.500909 106.745078,65.8939519 L106.745078,65.9172055 C106.745078,66.3102484 106.808395,66.6828735 106.935028,67.0333792 C107.06166,67.3844522 107.23884,67.6890179 107.466566,67.9476435 C107.694825,68.205702 107.967777,68.4121487 108.285955,68.5664166 C108.604665,68.7206846 108.951575,68.7978185 109.328281,68.7978185 Z M111.618314,69.3417264 C111.292686,69.5884416 110.937795,69.7773063 110.554704,69.9083206 C110.171081,70.0393349 109.755002,70.1051257 109.306467,70.1051257 C108.720125,70.1051257 108.184862,69.9950963 107.700145,69.7756049 C107.215429,69.5555462 106.79935,69.2566521 106.451908,68.8789226 C106.104465,68.5006259 105.833109,68.0593743 105.637839,67.5540335 C105.442569,67.0492598 105.345201,66.5110235 105.345201,65.9404591 L105.345201,65.9172055 C105.345201,65.3466411 105.442569,64.8084049 105.637839,64.303064 C105.833109,63.7982903 106.10819,63.3547701 106.463081,62.9730704 C106.81744,62.5913707 107.237244,62.2885065 107.72196,62.0644778 C108.206677,61.8410161 108.74194,61.7292853 109.328281,61.7292853 C109.914091,61.7292853 110.449354,61.8393147 110.934071,62.0588061 C111.419319,62.2788648 111.835398,62.5777589 112.182308,62.9554884 C112.529751,63.3332179 112.801107,63.7750367 112.996377,64.2803775 C113.191646,64.7851512 113.289547,65.3233875 113.289547,65.8939519 L113.289547,65.9172055 C113.289547,66.3800092 113.224103,66.8212609 113.094278,67.2415275 C112.96392,67.6623613 112.772375,68.0497326 112.519109,68.4042085 L113.386916,69.1914286 L112.529751,70.2094834 L111.618314,69.3417264 Z" id="Fill-15" fill="#8C8C8C"></path>
                <path d="M126.921198,70.0937824 C126.429032,70.0937824 125.984221,70.01835 125.586232,69.8680522 C125.188243,69.7177544 124.84825,69.4920241 124.565721,69.1914286 C124.283723,68.8902658 124.066639,68.5182079 123.914466,68.0746877 C123.762826,67.6311674 123.68674,67.116752 123.68674,66.530307 L123.68674,61.8682399 L125.021705,61.8682399 L125.021705,66.4724566 C125.021705,67.2284828 125.191968,67.8030173 125.531961,68.1960602 C125.871954,68.5896703 126.342305,68.7864753 126.94248,68.7864753 C127.536271,68.7864753 128.002897,68.5970434 128.34289,68.2193138 C128.682884,67.8415843 128.852614,67.278393 128.852614,66.530307 L128.852614,61.8682399 L130.187579,61.8682399 L130.187579,66.4611133 C130.187579,67.0623045 130.109897,67.5908989 129.954532,68.0457624 C129.799168,68.5006259 129.579955,68.8806241 129.297957,69.1851898 C129.015428,69.4897555 128.673838,69.7177544 128.272125,69.8680522 C127.870412,70.01835 127.42028,70.0937824 126.921198,70.0937824 Z" id="Fill-16" fill="#8C8C8C"></path>
                <polygon id="Fill-17" fill="#8C8C8C" points="140.921573 61.8682399 146.554605 61.8682399 146.554605 63.140383 142.256538 63.140383 142.256538 65.2462535 146.066164 65.2462535 146.066164 66.5189638 142.256538 66.5189638 142.256538 68.6934608 146.608876 68.6934608 146.608876 69.9661711 140.921573 69.9661711"></polygon>
                <path d="M103.137639,106.783457 C103.137639,106.783457 100.70182,111.763702 103.137639,117.24872 C103.137639,117.24872 107.769314,124.501013 113.844497,121.200701 C113.844497,121.200701 118.480429,119.489008 119.687165,111.966178 L118.801799,106.783457 L117.796718,103.027147 L116.970412,100.765874 C116.970412,100.765874 116.210083,98.1869907 113.844497,99.5288947 C113.844497,99.5288947 112.491441,100.877605 113.844497,105.160808 L116.193057,111.169883 C116.193057,111.169883 116.834202,116.848304 111.965224,118.278118 C111.965224,118.278118 106.391784,119.303546 105.321257,113.419246 C105.321257,113.419246 104.939231,107.499782 106.297075,105.9537 C106.297075,105.9537 109.156955,104.65887 109.187815,103.027147 C109.187815,103.027147 109.064906,100.557158 106.297075,101.883182 C106.297075,101.883182 103.308966,102.953416 102.27196,101.883182 C102.27196,101.883182 99.9170158,100.808978 99.0885817,103.027147 C99.0885817,103.027147 96.5431557,106.151072 100.262862,106.783457 L103.137639,106.783457 Z" id="Fill-18" fill="#000000"></path>
            </g>
        </g>
    </g>
</svg>